<?xml version="1.0" encoding="UTF-8"?>
<svg width="24" height="24" viewBox="0 0 24 24" fill="none" xmlns="http://www.w3.org/2000/svg">
  <path d="M12 3C10.3 3 9 4.3 9 6C9 7.7 10.3 9 12 9C13.7 9 15 7.7 15 6C15 4.3 13.7 3 12 3Z" fill="#000000"/>
  <path d="M7 10C5.3 10 4 11.3 4 13C4 14.7 5.3 16 7 16C8.7 16 10 14.7 10 13C10 11.3 8.7 10 7 10Z" fill="#000000"/>
  <path d="M17 10C15.3 10 14 11.3 14 13C14 14.7 15.3 16 17 16C18.7 16 20 14.7 20 13C20 11.3 18.7 10 17 10Z" fill="#000000"/>
  <path d="M12 12V21" stroke="#000000" stroke-width="2"/>
  <path d="M10 21H14" stroke="#000000" stroke-width="2"/>
</svg> 
