<?xml version="1.0" encoding="UTF-8"?>
<svg width="512" height="512" viewBox="0 0 512 512" xmlns="http://www.w3.org/2000/svg">
  <!-- 背景の円 -->
  <circle cx="256" cy="256" r="256" fill="#1A1A2E"/>
  
  <!-- P の文字（ポーカーチップ風） -->
  <path d="M256 96c88.366 0 160 71.634 160 160 0 88.366-71.634 160-160 160-88.366 0-160-71.634-160-160 0-88.366 71.634-160 160-160z" 
        fill="#E5B94E" fill-opacity="0.1" stroke="#E5B94E" stroke-width="24"/>
  
  <!-- P の文字 -->
  <path d="M192 160h96c35.346 0 64 28.654 64 64s-28.654 64-64 64h-32v64h-64V160z" 
        fill="#E5B94E"/>
  <path d="M256 224h-64v64h64c17.673 0 32-14.327 32-32s-14.327-32-32-32z" 
        fill="#1A1A2E"/>
</svg> 
